<svg width="31" height="31" viewBox="0 0 31 31" fill="none" xmlns="http://www.w3.org/2000/svg">
<path d="M18.6557 13.883L20.675 15.9024V13.883H18.6557ZM21.9371 8.8347H16.8888V11.2327H21.9371C24.0827 11.2327 25.8496 12.9996 25.8496 15.1451C25.8496 16.7858 24.8399 18.1741 23.4516 18.6789L25.2185 20.4459C26.9854 19.4362 28.2475 17.4169 28.2475 15.1451C28.2475 11.6113 25.4709 8.8347 21.9371 8.8347ZM3.00586 5.42707L6.91832 9.33953C4.64657 10.223 3.00586 12.4947 3.00586 15.1451C3.00586 18.6789 5.78244 21.4555 9.31628 21.4555H14.3646V19.0576H9.31628C7.17073 19.0576 5.40382 17.2907 5.40382 15.1451C5.40382 13.1258 6.91832 11.4851 8.93765 11.2327L11.4618 13.883H10.5784V16.4072H13.986L16.8888 19.31V21.4555H19.0343L24.0827 26.5039L25.8496 24.737L4.77278 3.66016L3.00586 5.42707Z" fill="black"/>
</svg>
