<svg width="31" height="31" viewBox="0 0 31 31" fill="none" xmlns="http://www.w3.org/2000/svg">
<path d="M19.2466 14.8928C19.8645 14.5165 20.386 14.001 20.7695 13.3875C21.1529 12.7739 21.3878 12.0793 21.4552 11.3589C21.4669 10.7075 21.3502 10.0602 21.1117 9.45395C20.8732 8.84769 20.5176 8.29435 20.0652 7.82555C19.6128 7.35674 19.0725 6.98165 18.4751 6.72171C17.8777 6.46176 17.2349 6.32205 16.5836 6.31055H8.39258V23.9798H17.2272C17.8471 23.9732 18.4596 23.8446 19.0298 23.6013C19.5999 23.358 20.1166 23.0047 20.5502 22.5617C20.9838 22.1187 21.326 21.5946 21.557 21.0194C21.7881 20.4441 21.9036 19.829 21.897 19.2091V19.0577C21.8974 18.1832 21.6482 17.3267 21.1787 16.589C20.7092 15.8512 20.0389 15.2627 19.2466 14.8928V14.8928ZM10.9168 8.83473H16.2175C16.7554 8.81808 17.2855 8.96634 17.7367 9.25962C18.1879 9.55289 18.5386 9.97714 18.7417 10.4754C18.9473 11.1416 18.8808 11.862 18.5568 12.4792C18.2328 13.0965 17.6777 13.5604 17.0127 13.7695C16.7544 13.8452 16.4867 13.8834 16.2175 13.8831H10.9168V8.83473ZM16.7224 21.4556H10.9168V16.4073H16.7224C17.2602 16.3906 17.7903 16.5389 18.2415 16.8322C18.6927 17.1254 19.0434 17.5497 19.2466 18.048C19.4521 18.7141 19.3856 19.4345 19.0616 20.0518C18.7377 20.669 18.1825 21.1329 17.5175 21.3421C17.2593 21.4177 16.9915 21.456 16.7224 21.4556V21.4556Z" fill="black"/>
</svg>
