<svg width="31" height="31" viewBox="0 0 31 31" fill="none" xmlns="http://www.w3.org/2000/svg">
<path d="M15.1321 11.3589H17.6563L14.8797 23.9798H12.3555L15.1321 11.3589ZM17.2524 6.31055C17.0028 6.31055 16.7588 6.38457 16.5512 6.52325C16.3437 6.66193 16.1819 6.85904 16.0864 7.08966C15.9908 7.32027 15.9658 7.57404 16.0145 7.81886C16.0632 8.06368 16.1834 8.28856 16.3599 8.46507C16.5365 8.64158 16.7613 8.76178 17.0062 8.81048C17.251 8.85918 17.5047 8.83418 17.7354 8.73866C17.966 8.64313 18.1631 8.48137 18.3018 8.27382C18.4405 8.06627 18.5145 7.82226 18.5145 7.57264C18.5145 7.23791 18.3815 6.91689 18.1448 6.68021C17.9081 6.44352 17.5871 6.31055 17.2524 6.31055Z" fill="black"/>
</svg>
