<svg width="31" height="31" viewBox="0 0 31 31" fill="none" xmlns="http://www.w3.org/2000/svg">
<path d="M13.7366 15.1452L18.2801 19.6887L16.5132 21.4556L11.9696 16.9121L7.42611 21.4556L5.65918 19.6887L10.2027 15.1452L5.65918 10.6016L7.42611 8.83472L11.9696 13.3782L16.5132 8.83472L18.2801 10.6016L13.7366 15.1452ZM23.7227 24.8305L25.0707 23.3835C25.3181 23.1293 25.5389 22.8693 25.7482 22.6151C25.9498 22.37 26.1321 22.1097 26.2934 21.8364C26.4445 21.5838 26.5683 21.3158 26.6627 21.037C26.7523 20.7657 26.7977 20.4819 26.7972 20.1962C26.801 19.8411 26.7353 19.4886 26.604 19.1587C26.4796 18.8485 26.2851 18.5714 26.0358 18.3489C25.7709 18.1172 25.4612 17.9426 25.126 17.8359C24.3206 17.5961 23.4602 17.6158 22.6668 17.8923C22.3045 18.0291 21.9758 18.2421 21.7029 18.5168C21.4393 18.7801 21.235 19.0965 21.1036 19.4451C20.9774 19.7814 20.9108 20.1372 20.9069 20.4964L20.9023 20.7955H22.8451L22.8531 20.5091C22.8551 20.3493 22.8779 20.1903 22.921 20.0364C22.9631 19.9012 23.0302 19.7752 23.1189 19.6648C23.2086 19.5634 23.3203 19.4839 23.4455 19.4325C23.729 19.3202 24.0434 19.3136 24.3313 19.4141C24.435 19.4596 24.5276 19.5271 24.6027 19.612C24.6794 19.7025 24.7383 19.8067 24.7764 19.9191C24.8214 20.0557 24.8447 20.1985 24.8454 20.3424C24.844 20.4554 24.8305 20.568 24.8052 20.6782C24.7684 20.8098 24.7159 20.9365 24.6487 21.0555C24.5511 21.2274 24.4399 21.3913 24.3163 21.5455C24.1467 21.7659 23.9658 21.9775 23.7745 22.1793L21.053 25.1492V26.504H27.1147V24.8305H23.7227Z" fill="black"/>
</svg>
