<svg width="32" height="31" viewBox="0 0 32 31" fill="none" xmlns="http://www.w3.org/2000/svg">
<path d="M14.0266 15.1452L18.5701 19.6887L16.8032 21.4556L12.2597 16.9121L7.71615 21.4556L5.94922 19.6887L10.4927 15.1452L5.94922 10.6016L7.71615 8.83469L12.2597 13.3782L16.8032 8.83469L18.5701 10.6016L14.0266 15.1452ZM25.2748 10.9474L26.6229 9.50045C26.8702 9.24625 27.091 8.98628 27.3003 8.73209C27.502 8.48702 27.6843 8.22667 27.8456 7.95337C27.9966 7.70075 28.1204 7.43277 28.2148 7.15397C28.3044 6.88272 28.3499 6.59882 28.3494 6.31315C28.3531 5.95803 28.2875 5.6056 28.1561 5.27563C28.0318 4.96548 27.8373 4.68833 27.5879 4.46588C27.3231 4.23422 27.0134 4.05959 26.6781 3.95289C25.8728 3.71302 25.0124 3.73274 24.2189 4.00924C23.8566 4.14611 23.5279 4.35909 23.255 4.63381C22.9915 4.89705 22.7872 5.21352 22.6557 5.56205C22.5295 5.89838 22.4629 6.25416 22.459 6.61337L22.4544 6.91249H24.3972L24.4053 6.62603C24.4073 6.46617 24.4301 6.30725 24.4731 6.15328C24.5152 6.01814 24.5824 5.89211 24.671 5.78176C24.7607 5.68033 24.8724 5.60084 24.9977 5.54941C25.2811 5.43709 25.5955 5.43056 25.8834 5.53101C25.9871 5.57654 26.0798 5.64406 26.1549 5.72889C26.2315 5.81942 26.2905 5.92361 26.3285 6.03599C26.3736 6.1726 26.3968 6.31544 26.3976 6.45927C26.3962 6.57234 26.3827 6.68494 26.3573 6.79514C26.3205 6.92675 26.268 7.05343 26.2008 7.17242C26.1032 7.34433 25.9921 7.50818 25.8684 7.6624C25.6988 7.88282 25.518 8.09437 25.3266 8.29618L22.6052 11.266V12.621H28.6669V10.9474H25.2748Z" fill="black"/>
</svg>
