<svg width="31" height="31" viewBox="0 0 31 31" fill="none" xmlns="http://www.w3.org/2000/svg">
<path d="M24.5599 25.2419V27.7661H6.89062V25.2419H24.5599ZM20.7736 16.6786C20.7321 17.5116 20.4848 18.3213 20.0539 19.0353C19.623 19.7494 19.0219 20.3456 18.3044 20.7706C17.5868 21.1957 16.7751 21.4363 15.9419 21.4711C15.1086 21.5058 14.2797 21.3336 13.5292 20.9697C12.6642 20.5955 11.9307 19.9716 11.4225 19.1779C10.9143 18.3841 10.6547 17.4568 10.6769 16.5146V6.31686H8.15272V16.6786C8.19542 17.8668 8.51727 19.0282 9.09224 20.0688C9.6672 21.1094 10.4791 22.0001 11.4623 22.6686C12.4454 23.3371 13.5721 23.7648 14.7513 23.917C15.9304 24.0691 17.1288 23.9415 18.2494 23.5444C19.7401 23.0475 21.0334 22.0881 21.9414 20.8057C22.8493 19.5233 23.3245 17.9847 23.2978 16.4136V6.31686H20.7736V16.6786ZM20.7736 6.31055H23.2978H20.7736ZM10.6769 6.31055H8.15272H10.6769Z" fill="black"/>
</svg>
