<svg width="30" height="30" viewBox="0 0 30 30" fill="none" xmlns="http://www.w3.org/2000/svg">
<g clip-path="url(#clip0_759_23437)">
<path d="M28.3441 0H1.65586C1.2167 0 0.795524 0.174456 0.48499 0.48499C0.174456 0.795524 0 1.2167 0 1.65586L0 28.3441C0 28.7833 0.174456 29.2045 0.48499 29.515C0.795524 29.8255 1.2167 30 1.65586 30H16.0254V18.3984H12.1289V13.8574H16.0254V10.5176C16.0254 6.64277 18.392 4.53281 21.8496 4.53281C23.5049 4.53281 24.9281 4.65586 25.3418 4.70859V8.75801H22.957C21.0762 8.75801 20.7117 9.65156 20.7117 10.9635V13.8574H25.2082L24.6223 18.3984H20.7117V30H28.343C28.5605 30.0002 28.776 29.9574 28.977 29.8743C29.178 29.7911 29.3607 29.6692 29.5146 29.5154C29.6685 29.3616 29.7906 29.1791 29.8738 28.9781C29.9571 28.7771 30 28.5617 30 28.3441V1.65586C30 1.2167 29.8255 0.795524 29.515 0.48499C29.2045 0.174456 28.7833 0 28.3441 0Z" fill="#4267B2"/>
<path d="M20.7129 30V18.3985H24.624L25.21 13.8575H20.7129V10.9653C20.7129 9.65337 21.0762 8.75981 22.9582 8.75981H25.3418V4.70923C24.927 4.65415 23.5037 4.53345 21.8496 4.53345C18.3926 4.53345 16.0254 6.64282 16.0254 10.5182V13.8581H12.1289V18.3985H16.0254V30H20.7129Z" fill="white"/>
</g>
<defs>
<clipPath id="clip0_759_23437">
<rect width="30" height="30" fill="white"/>
</clipPath>
</defs>
</svg>
