<svg width="25" height="25" viewBox="0 0 25 25" fill="none" xmlns="http://www.w3.org/2000/svg">
<g clip-path="url(#clip0_759_23478)">
<path d="M23.6201 0H1.37988C1.01392 0 0.662937 0.14538 0.404158 0.404158C0.14538 0.662937 0 1.01392 0 1.37988L0 23.6201C0 23.9861 0.14538 24.3371 0.404158 24.5958C0.662937 24.8546 1.01392 25 1.37988 25H13.3545V15.332H10.1074V11.5479H13.3545V8.76465C13.3545 5.53564 15.3267 3.77734 18.208 3.77734C19.5874 3.77734 20.7734 3.87988 21.1182 3.92383V7.29834H19.1309C17.5635 7.29834 17.2598 8.04297 17.2598 9.13623V11.5479H21.0068L20.5186 15.332H17.2598V25H23.6191C23.8004 25.0001 23.98 24.9645 24.1475 24.8952C24.315 24.826 24.4673 24.7243 24.5955 24.5962C24.7237 24.468 24.8255 24.3159 24.8949 24.1484C24.9643 23.9809 25 23.8014 25 23.6201V1.37988C25 1.01392 24.8546 0.662937 24.5958 0.404158C24.3371 0.14538 23.9861 0 23.6201 0Z" fill="#A5A5A5"/>
<path d="M17.2607 25V15.332H20.52L21.0083 11.5479H17.2607V9.1377C17.2607 8.04443 17.5635 7.2998 19.1318 7.2998H21.1182V3.92432C20.7725 3.87842 19.5864 3.77783 18.208 3.77783C15.3271 3.77783 13.3545 5.53564 13.3545 8.76514V11.5483H10.1074V15.332H13.3545V25H17.2607Z" fill="white"/>
</g>
<defs>
<clipPath id="clip0_759_23478">
<rect width="25" height="25" fill="white"/>
</clipPath>
</defs>
</svg>
