<svg width="30" height="30" viewBox="0 0 30 30" fill="none" xmlns="http://www.w3.org/2000/svg">
<g clip-path="url(#clip0_759_23428)">
<path d="M7.60722 29.8939C5.8231 29.8128 4.85392 29.5159 4.20929 29.2644C3.35513 28.9319 2.74616 28.536 2.10509 27.8958C1.46402 27.2556 1.06726 26.6467 0.73647 25.7925C0.485036 25.1479 0.18813 24.1787 0.106993 22.3946C0.0178322 20.466 0 19.8874 0 15.0013C0 10.1153 0.0196154 9.53755 0.106102 7.60722C0.187238 5.8231 0.485927 4.85571 0.735578 4.20929C1.06815 3.35513 1.46492 2.74616 2.1042 2.1042C2.74438 1.46402 3.35335 1.06637 4.2084 0.735578C4.85303 0.484144 5.82221 0.187238 7.60632 0.106102C9.53577 0.0178322 10.1153 0 14.9996 0C19.8856 0 20.4633 0.0196154 22.3937 0.106102C24.1778 0.187238 25.1452 0.485927 25.7916 0.735578C26.6458 1.06637 27.2547 1.46402 27.8958 2.1042C28.5369 2.74438 28.9319 3.35424 29.2644 4.2084C29.5159 4.85303 29.8128 5.82221 29.8939 7.60632C29.9822 9.53666 30 10.1144 30 15.0004C30 19.8847 29.9822 20.4642 29.8939 22.3946C29.8128 24.1787 29.5141 25.1479 29.2644 25.7925C28.9319 26.6467 28.536 27.2556 27.8958 27.8958C27.2556 28.536 26.6458 28.9319 25.7916 29.2644C25.147 29.5159 24.1778 29.8128 22.3937 29.8939C20.4651 29.9822 19.8856 30 14.9996 30C10.1153 30 9.53577 29.9831 7.60722 29.8939Z" fill="url(#paint0_radial_759_23428)"/>
<path d="M7.60722 29.8939C5.8231 29.8128 4.85392 29.5159 4.20929 29.2644C3.35513 28.9319 2.74616 28.536 2.10509 27.8958C1.46402 27.2556 1.06726 26.6467 0.73647 25.7925C0.485036 25.1479 0.18813 24.1787 0.106993 22.3946C0.0178322 20.466 0 19.8874 0 15.0013C0 10.1153 0.0196154 9.53755 0.106102 7.60722C0.187238 5.8231 0.485927 4.85571 0.735578 4.20929C1.06815 3.35513 1.46492 2.74616 2.1042 2.1042C2.74438 1.46402 3.35335 1.06637 4.2084 0.735578C4.85303 0.484144 5.82221 0.187238 7.60632 0.106102C9.53577 0.0178322 10.1153 0 14.9996 0C19.8856 0 20.4633 0.0196154 22.3937 0.106102C24.1778 0.187238 25.1452 0.485927 25.7916 0.735578C26.6458 1.06637 27.2547 1.46402 27.8958 2.1042C28.5369 2.74438 28.9319 3.35424 29.2644 4.2084C29.5159 4.85303 29.8128 5.82221 29.8939 7.60632C29.9822 9.53666 30 10.1144 30 15.0004C30 19.8847 29.9822 20.4642 29.8939 22.3946C29.8128 24.1787 29.5141 25.1479 29.2644 25.7925C28.9319 26.6467 28.536 27.2556 27.8958 27.8958C27.2556 28.536 26.6458 28.9319 25.7916 29.2644C25.147 29.5159 24.1778 29.8128 22.3937 29.8939C20.4651 29.9822 19.8856 30 14.9996 30C10.1153 30 9.53577 29.9831 7.60722 29.8939Z" fill="url(#paint1_radial_759_23428)"/>
<path d="M11.3174 15.0641C11.3174 13.0124 12.9802 11.3487 15.0318 11.3487C17.0835 11.3487 18.7472 13.0124 18.7472 15.0641C18.7472 17.1158 17.0835 18.7794 15.0318 18.7794C12.9802 18.7794 11.3174 17.1158 11.3174 15.0641ZM9.30896 15.0641C9.30896 18.2248 11.8711 20.787 15.0318 20.787C18.1926 20.787 20.7547 18.2248 20.7547 15.0641C20.7547 11.9033 18.1926 9.34118 15.0318 9.34118C11.8711 9.34118 9.30905 11.9031 9.30905 15.0641M19.644 9.11427C19.6439 9.37878 19.7222 9.63739 19.8691 9.85738C20.0159 10.0774 20.2247 10.2489 20.4691 10.3502C20.7134 10.4515 20.9823 10.4781 21.2418 10.4266C21.5012 10.3751 21.7396 10.2478 21.9267 10.0609C22.1138 9.87391 22.2413 9.63566 22.293 9.37624C22.3447 9.11683 22.3183 8.84791 22.2172 8.60349C22.1161 8.35907 21.9447 8.15012 21.7249 8.00308C21.505 7.85603 21.2464 7.77749 20.9819 7.77739H20.9814C20.6268 7.77755 20.2868 7.91844 20.0361 8.1691C19.7853 8.41976 19.6443 8.75971 19.644 9.11427ZM10.5292 24.136C9.44261 24.0865 8.85201 23.9055 8.45952 23.7526C7.93918 23.5501 7.56791 23.3088 7.17756 22.919C6.78722 22.5292 6.54559 22.1583 6.34391 21.6379C6.19091 21.2456 6.00991 20.6548 5.96051 19.5682C5.90648 18.3934 5.89569 18.0405 5.89569 15.0642C5.89569 12.088 5.90737 11.736 5.96051 10.5603C6.01 9.47367 6.19233 8.88405 6.34391 8.49059C6.54648 7.97024 6.78775 7.59898 7.17756 7.20863C7.56737 6.81828 7.93828 6.57666 8.45952 6.37497C8.85183 6.22197 9.44261 6.04098 10.5292 5.99158C11.704 5.93755 12.0569 5.92676 15.0318 5.92676C18.0068 5.92676 18.36 5.93826 19.5358 5.99176C20.6224 6.04124 21.212 6.22358 21.6055 6.37515C22.1258 6.57683 22.4971 6.819 22.8875 7.20881C23.2778 7.59862 23.5185 7.97042 23.7211 8.49076C23.8741 8.88307 24.0551 9.47385 24.1045 10.5605C24.1585 11.7362 24.1693 12.0881 24.1693 15.0644C24.1693 18.0407 24.1585 18.3926 24.1045 19.5684C24.055 20.655 23.8731 21.2456 23.7211 21.6381C23.5185 22.1584 23.2773 22.5297 22.8875 22.9192C22.4977 23.3086 22.1258 23.5502 21.6055 23.7528C21.2132 23.9058 20.6224 24.0868 19.5358 24.1362C18.361 24.1902 18.0081 24.201 15.0318 24.201C12.0556 24.201 11.7036 24.1902 10.5292 24.1362M10.4369 3.98644C9.25047 4.04047 8.43973 4.2286 7.7317 4.50411C6.99888 4.78862 6.3777 5.17032 5.75741 5.78963C5.13711 6.40894 4.7564 7.03022 4.47188 7.76392C4.19637 8.4724 4.00825 9.28269 3.95421 10.4692C3.89929 11.6575 3.88672 12.0374 3.88672 15.0641C3.88672 18.0907 3.89929 18.4706 3.95421 19.659C4.00825 20.8455 4.19637 21.6557 4.47188 22.3642C4.7564 23.097 5.1372 23.7195 5.75741 24.3385C6.37761 24.9575 6.99799 25.3387 7.7317 25.624C8.44106 25.8995 9.25047 26.0877 10.4369 26.1417C11.6259 26.1957 12.0052 26.2092 15.0318 26.2092C18.0585 26.2092 18.4384 26.1966 19.6268 26.1417C20.8133 26.0877 21.6235 25.8995 22.332 25.624C23.0648 25.3387 23.686 24.9578 24.3063 24.3385C24.9266 23.7192 25.3065 23.097 25.5918 22.3642C25.8673 21.6557 26.0563 20.8454 26.1095 19.659C26.1635 18.4698 26.1761 18.0907 26.1761 15.0641C26.1761 12.0374 26.1635 11.6575 26.1095 10.4692C26.0554 9.2826 25.8673 8.47195 25.5918 7.76392C25.3065 7.03111 24.9256 6.40993 24.3063 5.78963C23.687 5.16934 23.0648 4.78862 22.3329 4.50411C21.6235 4.2286 20.8132 4.03958 19.6276 3.98644C18.4391 3.93214 18.0594 3.91895 15.0332 3.91895C12.007 3.91895 11.6263 3.93152 10.4374 3.98644" fill="white"/>
</g>
<defs>
<radialGradient id="paint0_radial_759_23428" cx="0" cy="0" r="1" gradientUnits="userSpaceOnUse" gradientTransform="translate(1.94157 29.3428) scale(38.0889)">
<stop offset="0.09" stop-color="#FA8F21"/>
<stop offset="0.78" stop-color="#D82D7E"/>
</radialGradient>
<radialGradient id="paint1_radial_759_23428" cx="0" cy="0" r="1" gradientUnits="userSpaceOnUse" gradientTransform="translate(20.78 28.3795) scale(33.5186)">
<stop offset="0.64" stop-color="#8C3AAA" stop-opacity="0"/>
<stop offset="1" stop-color="#8C3AAA"/>
</radialGradient>
<clipPath id="clip0_759_23428">
<rect width="30" height="30" fill="white"/>
</clipPath>
</defs>
</svg>
