<svg width="25" height="25" viewBox="0 0 25 25" fill="none" xmlns="http://www.w3.org/2000/svg">
<g clip-path="url(#clip0_759_23472)">
<path d="M6.33935 24.9116C4.85259 24.844 4.04494 24.5965 3.50774 24.387C2.79594 24.1099 2.28847 23.78 1.75424 23.2465C1.22002 22.713 0.889381 22.2055 0.613725 21.4937C0.404197 20.9565 0.156775 20.1489 0.089161 18.6621C0.0148602 17.055 0 16.5728 0 12.5011C0 8.42943 0.0163462 7.94796 0.088418 6.33935C0.156032 4.85259 0.40494 4.04642 0.612982 3.50774C0.890124 2.79594 1.22076 2.28847 1.7535 1.7535C2.28698 1.22002 2.79445 0.888638 3.507 0.612982C4.04419 0.403454 4.85184 0.156032 6.3386 0.088418C7.94647 0.0148602 8.42943 0 12.4996 0C16.5713 0 17.0528 0.0163462 18.6614 0.088418C20.1482 0.156032 20.9543 0.40494 21.493 0.612982C22.2048 0.888638 22.7123 1.22002 23.2465 1.7535C23.7807 2.28698 24.1099 2.7952 24.387 3.507C24.5965 4.04419 24.844 4.85184 24.9116 6.3386C24.9851 7.94722 25 8.42869 25 12.5004C25 16.5706 24.9851 17.0535 24.9116 18.6621C24.844 20.1489 24.5951 20.9565 24.387 21.4937C24.1099 22.2055 23.78 22.713 23.2465 23.2465C22.713 23.78 22.2048 24.1099 21.493 24.387C20.9558 24.5965 20.1482 24.844 18.6614 24.9116C17.0543 24.9851 16.5713 25 12.4996 25C8.42943 25 7.94647 24.9859 6.33935 24.9116Z" fill="#A5A5A5"/>
<path d="M6.33935 24.9116C4.85259 24.844 4.04494 24.5965 3.50774 24.387C2.79594 24.1099 2.28847 23.78 1.75424 23.2465C1.22002 22.713 0.889381 22.2055 0.613725 21.4937C0.404197 20.9565 0.156775 20.1489 0.089161 18.6621C0.0148602 17.055 0 16.5728 0 12.5011C0 8.42943 0.0163462 7.94796 0.088418 6.33935C0.156032 4.85259 0.40494 4.04642 0.612982 3.50774C0.890124 2.79594 1.22076 2.28847 1.7535 1.7535C2.28698 1.22002 2.79445 0.888638 3.507 0.612982C4.04419 0.403454 4.85184 0.156032 6.3386 0.088418C7.94647 0.0148602 8.42943 0 12.4996 0C16.5713 0 17.0528 0.0163462 18.6614 0.088418C20.1482 0.156032 20.9543 0.40494 21.493 0.612982C22.2048 0.888638 22.7123 1.22002 23.2465 1.7535C23.7807 2.28698 24.1099 2.7952 24.387 3.507C24.5965 4.04419 24.844 4.85184 24.9116 6.3386C24.9851 7.94722 25 8.42869 25 12.5004C25 16.5706 24.9851 17.0535 24.9116 18.6621C24.844 20.1489 24.5951 20.9565 24.387 21.4937C24.1099 22.2055 23.78 22.713 23.2465 23.2465C22.713 23.78 22.2048 24.1099 21.493 24.387C20.9558 24.5965 20.1482 24.844 18.6614 24.9116C17.0543 24.9851 16.5713 25 12.4996 25C8.42943 25 7.94647 24.9859 6.33935 24.9116Z" fill="#A5A5A5"/>
<path d="M9.43051 12.5532C9.43051 10.8435 10.8161 9.45711 12.5259 9.45711C14.2356 9.45711 15.622 10.8435 15.622 12.5532C15.622 14.263 14.2356 15.6493 12.5259 15.6493C10.8161 15.6493 9.43051 14.263 9.43051 12.5532ZM7.75681 12.5532C7.75681 15.1872 9.89192 17.3223 12.5259 17.3223C15.1599 17.3223 17.295 15.1872 17.295 12.5532C17.295 9.91926 15.1599 7.78416 12.5259 7.78416C9.89192 7.78416 7.75689 9.91911 7.75689 12.5532M16.3693 7.59506C16.3692 7.81549 16.4345 8.03099 16.5569 8.21432C16.6793 8.39765 16.8533 8.54057 17.0569 8.62501C17.2605 8.70945 17.4846 8.73161 17.7008 8.68869C17.917 8.64577 18.1157 8.5397 18.2716 8.3839C18.4275 8.22809 18.5338 8.02955 18.5768 7.81337C18.6199 7.5972 18.598 7.3731 18.5137 7.16941C18.4294 6.96573 18.2866 6.79161 18.1034 6.66907C17.9202 6.54653 17.7047 6.48108 17.4843 6.48099H17.4838C17.1884 6.48113 16.905 6.59854 16.6961 6.80742C16.4871 7.01631 16.3696 7.29959 16.3693 7.59506ZM8.77369 20.1132C7.86819 20.0719 7.37602 19.9211 7.04895 19.7937C6.61533 19.6249 6.30594 19.4238 5.98065 19.099C5.65536 18.7741 5.45401 18.465 5.28594 18.0314C5.15844 17.7045 5.00761 17.2122 4.96644 16.3067C4.92142 15.3277 4.91243 15.0336 4.91243 12.5534C4.91243 10.0731 4.92216 9.77987 4.96644 8.80007C5.00768 7.89457 5.15963 7.40321 5.28594 7.07533C5.45475 6.64171 5.65581 6.33232 5.98065 6.00703C6.30549 5.68174 6.61459 5.48038 7.04895 5.31232C7.37587 5.18482 7.86819 5.03398 8.77369 4.99282C9.75268 4.9478 10.0468 4.93881 12.5259 4.93881C15.005 4.93881 15.2994 4.94839 16.2792 4.99297C17.1847 5.03421 17.676 5.18615 18.0039 5.31246C18.4376 5.48053 18.7469 5.68233 19.0722 6.00718C19.3975 6.33202 19.5981 6.64185 19.7669 7.07547C19.8944 7.4024 20.0453 7.89471 20.0864 8.80022C20.1315 9.78002 20.1405 10.0733 20.1405 12.5535C20.1405 15.0338 20.1315 15.327 20.0864 16.3068C20.0452 17.2123 19.8936 17.7045 19.7669 18.0316C19.5981 18.4652 19.3971 18.7746 19.0722 19.0991C18.7474 19.4237 18.4376 19.625 18.0039 19.7938C17.677 19.9213 17.1847 20.0722 16.2792 20.1133C15.3002 20.1584 15.0061 20.1674 12.5259 20.1674C10.0456 20.1674 9.75238 20.1584 8.77369 20.1133M8.69679 3.32187C7.70807 3.3669 7.03245 3.52367 6.44243 3.75326C5.83175 3.99036 5.3141 4.30844 4.79719 4.82453C4.28028 5.34062 3.96301 5.85835 3.72592 6.46977C3.49633 7.06017 3.33955 7.73541 3.29453 8.72413C3.24876 9.71442 3.23828 10.031 3.23828 12.5532C3.23828 15.0754 3.24876 15.392 3.29453 16.3823C3.33955 17.3711 3.49633 18.0463 3.72592 18.6367C3.96301 19.2474 4.28035 19.7661 4.79719 20.2819C5.31402 20.7978 5.83101 21.1154 6.44243 21.3532C7.03357 21.5828 7.70807 21.7396 8.69679 21.7846C9.68759 21.8296 10.0037 21.8408 12.5259 21.8408C15.0481 21.8408 15.3647 21.8304 16.355 21.7846C17.3438 21.7396 18.0189 21.5828 18.6093 21.3532C19.22 21.1154 19.7377 20.798 20.2546 20.2819C20.7715 19.7658 21.0881 19.2474 21.3259 18.6367C21.5554 18.0463 21.713 17.371 21.7572 16.3823C21.8023 15.3913 21.8127 15.0754 21.8127 12.5532C21.8127 10.031 21.8023 9.71442 21.7572 8.72413C21.7122 7.73534 21.5554 7.0598 21.3259 6.46977C21.0881 5.8591 20.7707 5.34144 20.2546 4.82453C19.7385 4.30762 19.22 3.99036 18.6101 3.75326C18.0189 3.52367 17.3437 3.36615 16.3557 3.32187C15.3653 3.27662 15.0488 3.26562 12.527 3.26562C10.0052 3.26562 9.68797 3.2761 8.69716 3.32187" fill="white"/>
</g>
<defs>
<clipPath id="clip0_759_23472">
<rect width="25" height="25" fill="white"/>
</clipPath>
</defs>
</svg>
