<svg width="30" height="30" viewBox="0 0 30 30" fill="none" xmlns="http://www.w3.org/2000/svg">
<g clip-path="url(#clip0_759_23432)">
<path d="M27.7781 0.000976562H2.21437C0.99375 0.000976562 0 0.969414 0 2.16191V27.8344C0 29.0297 0.99375 30 2.21437 30H27.78C29.0034 30 30 29.0297 30 27.8344V2.16191C30 0.969414 29.0034 0.000976562 27.7781 0.000976562Z" fill="#0177B5"/>
<path d="M4.44906 11.2471H8.90687V25.5627H4.44906V11.2471ZM6.67469 4.12207C8.09687 4.12207 9.25281 5.27801 9.25281 6.7002C9.25281 8.12238 8.09687 9.28113 6.67562 9.28113C5.99149 9.27965 5.33578 9.00728 4.85193 8.52361C4.36809 8.03994 4.09548 7.38433 4.09375 6.7002C4.09375 6.3614 4.16053 6.02592 4.29027 5.71294C4.42001 5.39997 4.61016 5.11563 4.84986 4.87619C5.08956 4.63675 5.3741 4.44691 5.68722 4.31751C6.00033 4.18811 6.33589 4.1217 6.67469 4.12207ZM11.6903 11.2471H15.9578V13.2036H16.0169C16.6112 12.0786 18.0625 10.8918 20.2356 10.8918C24.7413 10.8918 25.5728 13.8571 25.5728 17.7111V25.5636H21.1263V18.5999C21.1263 16.9405 21.0963 14.803 18.8144 14.803C16.4988 14.803 16.1425 16.6124 16.1425 18.478V25.5599H11.6969V11.2443L11.6903 11.2471Z" fill="white"/>
</g>
<defs>
<clipPath id="clip0_759_23432">
<rect width="30" height="30" fill="white"/>
</clipPath>
</defs>
</svg>
