<svg width="146" height="48" viewBox="0 0 146 48" fill="none" xmlns="http://www.w3.org/2000/svg">
<g clip-path="url(#clip0_759_23485)">
<path d="M24 46C36.1506 46 46 36.1506 46 24C46 11.8494 36.1506 2 24 2C11.8494 2 2 11.8494 2 24C2 36.1506 11.8494 46 24 46Z" fill="#CEE0FA" stroke="#CEE0FA" stroke-width="4" stroke-linecap="round" stroke-linejoin="round"/>
<path d="M23.722 10L14.446 23.494C13.886 24.306 13.606 24.712 13.626 25.05C13.6329 25.1952 13.6713 25.3372 13.7387 25.466C13.806 25.5949 13.9007 25.7075 14.016 25.796C14.286 26 14.776 26 15.764 26H23.722V36L32.998 22.506C33.558 21.694 33.838 21.288 33.818 20.95C33.8111 20.8048 33.7727 20.6628 33.7053 20.534C33.638 20.4051 33.5433 20.2925 33.428 20.204C33.158 20 32.668 20 31.68 20H23.722V10Z" fill="#0B63E5" stroke="#0B63E5" stroke-width="2" stroke-linecap="round" stroke-linejoin="round"/>
</g>
<path d="M61.384 38V12.8H66.064V33.68H77.692V38H61.384ZM89.6811 38.36C87.7851 38.36 86.0931 37.94 84.6051 37.1C83.1171 36.236 81.9411 35.06 81.0771 33.572C80.2131 32.084 79.7811 30.392 79.7811 28.496C79.7811 26.6 80.2131 24.908 81.0771 23.42C81.9411 21.932 83.1171 20.768 84.6051 19.928C86.0931 19.064 87.7851 18.632 89.6811 18.632C91.5531 18.632 93.2331 19.064 94.7211 19.928C96.2091 20.768 97.3731 21.932 98.2131 23.42C99.0771 24.908 99.5091 26.6 99.5091 28.496C99.5091 30.392 99.0771 32.084 98.2131 33.572C97.3731 35.06 96.2091 36.236 94.7211 37.1C93.2331 37.94 91.5531 38.36 89.6811 38.36ZM89.6811 34.436C90.7131 34.436 91.6251 34.172 92.4171 33.644C93.2331 33.116 93.8691 32.408 94.3251 31.52C94.8051 30.632 95.0331 29.624 95.0091 28.496C95.0331 27.344 94.8051 26.324 94.3251 25.436C93.8691 24.548 93.2331 23.852 92.4171 23.348C91.6251 22.82 90.7131 22.556 89.6811 22.556C88.6491 22.556 87.7131 22.82 86.8731 23.348C86.0571 23.852 85.4211 24.56 84.9651 25.472C84.5091 26.36 84.2811 27.368 84.2811 28.496C84.2811 29.624 84.5091 30.632 84.9651 31.52C85.4211 32.408 86.0571 33.116 86.8731 33.644C87.7131 34.172 88.6491 34.436 89.6811 34.436ZM111.462 46.28C110.046 46.28 108.63 46.064 107.214 45.632C105.822 45.2 104.694 44.636 103.83 43.94L105.414 40.664C105.918 41.024 106.482 41.336 107.106 41.6C107.73 41.864 108.39 42.068 109.086 42.212C109.806 42.356 110.514 42.428 111.21 42.428C112.482 42.428 113.538 42.224 114.378 41.816C115.242 41.432 115.89 40.832 116.322 40.016C116.754 39.224 116.97 38.228 116.97 37.028V33.536L117.618 33.788C117.474 34.532 117.078 35.24 116.43 35.912C115.782 36.584 114.966 37.136 113.982 37.568C112.998 37.976 111.99 38.18 110.958 38.18C109.158 38.18 107.562 37.76 106.17 36.92C104.802 36.08 103.71 34.94 102.894 33.5C102.102 32.036 101.706 30.356 101.706 28.46C101.706 26.564 102.102 24.884 102.894 23.42C103.686 21.932 104.766 20.768 106.134 19.928C107.526 19.064 109.086 18.632 110.814 18.632C111.534 18.632 112.23 18.716 112.902 18.884C113.574 19.052 114.186 19.292 114.738 19.604C115.314 19.916 115.83 20.264 116.286 20.648C116.742 21.032 117.114 21.44 117.402 21.872C117.69 22.304 117.87 22.724 117.942 23.132L117.006 23.42L117.078 19.028H121.434V36.704C121.434 38.24 121.206 39.596 120.75 40.772C120.294 41.948 119.634 42.944 118.77 43.76C117.906 44.6 116.862 45.224 115.638 45.632C114.414 46.064 113.022 46.28 111.462 46.28ZM111.642 34.4C112.722 34.4 113.67 34.148 114.486 33.644C115.326 33.14 115.974 32.444 116.43 31.556C116.886 30.668 117.114 29.648 117.114 28.496C117.114 27.32 116.874 26.288 116.394 25.4C115.938 24.488 115.302 23.78 114.486 23.276C113.67 22.772 112.722 22.52 111.642 22.52C110.562 22.52 109.614 22.784 108.798 23.312C107.982 23.816 107.334 24.524 106.854 25.436C106.398 26.324 106.17 27.344 106.17 28.496C106.17 29.624 106.398 30.644 106.854 31.556C107.334 32.444 107.982 33.14 108.798 33.644C109.614 34.148 110.562 34.4 111.642 34.4ZM134.691 38.36C132.795 38.36 131.103 37.94 129.615 37.1C128.127 36.236 126.951 35.06 126.087 33.572C125.223 32.084 124.791 30.392 124.791 28.496C124.791 26.6 125.223 24.908 126.087 23.42C126.951 21.932 128.127 20.768 129.615 19.928C131.103 19.064 132.795 18.632 134.691 18.632C136.563 18.632 138.243 19.064 139.731 19.928C141.219 20.768 142.383 21.932 143.223 23.42C144.087 24.908 144.519 26.6 144.519 28.496C144.519 30.392 144.087 32.084 143.223 33.572C142.383 35.06 141.219 36.236 139.731 37.1C138.243 37.94 136.563 38.36 134.691 38.36ZM134.691 34.436C135.723 34.436 136.635 34.172 137.427 33.644C138.243 33.116 138.879 32.408 139.335 31.52C139.815 30.632 140.043 29.624 140.019 28.496C140.043 27.344 139.815 26.324 139.335 25.436C138.879 24.548 138.243 23.852 137.427 23.348C136.635 22.82 135.723 22.556 134.691 22.556C133.659 22.556 132.723 22.82 131.883 23.348C131.067 23.852 130.431 24.56 129.975 25.472C129.519 26.36 129.291 27.368 129.291 28.496C129.291 29.624 129.519 30.632 129.975 31.52C130.431 32.408 131.067 33.116 131.883 33.644C132.723 34.172 133.659 34.436 134.691 34.436Z" fill="white"/>
<defs>
<clipPath id="clip0_759_23485">
<rect width="48" height="48" fill="white"/>
</clipPath>
</defs>
</svg>
