<svg width="27" height="25" viewBox="0 0 27 25" fill="none" xmlns="http://www.w3.org/2000/svg">
<g clip-path="url(#clip0_759_23476)">
<path d="M8.38615 24.8822C18.4491 24.8822 23.953 15.3085 23.953 7.00639C23.953 6.73438 23.953 6.46369 23.9371 6.19299C25.0077 5.30402 25.932 4.20327 26.6667 2.94227C25.6681 3.45037 24.6089 3.78358 23.5243 3.93079C24.6664 3.14564 25.5212 1.91075 25.9296 0.45591C24.8556 1.18769 23.6806 1.7034 22.4554 1.98079C21.6305 0.97358 20.5395 0.306639 19.3513 0.0831717C18.163 -0.140295 16.9438 0.0921704 15.8822 0.744596C14.8206 1.39702 13.9758 2.43303 13.4786 3.69232C12.9814 4.9516 12.8595 6.36395 13.1318 7.71082C10.9566 7.58558 8.82861 6.93645 6.88604 5.80558C4.94348 4.6747 3.22973 3.08735 1.85604 1.14658C1.15641 2.52965 0.94211 4.16693 1.25678 5.72506C1.57146 7.28319 2.39144 8.64503 3.54979 9.5333C2.67914 9.50366 1.82748 9.23395 1.06667 8.74694V8.82649C1.067 10.277 1.50427 11.6828 2.3043 12.8053C3.10433 13.9278 4.21787 14.698 5.45604 14.9852C4.65056 15.2375 3.80545 15.2743 2.98562 15.093C3.33523 16.3414 4.01587 17.433 4.93236 18.2153C5.84884 18.9976 6.95534 19.4314 8.09708 19.456C6.15973 21.2045 3.76647 22.1536 1.3024 22.1508C0.867094 22.1498 0.432216 22.1195 0 22.0601C2.50202 23.9039 5.41325 24.8819 8.38615 24.8773" fill="#A5A5A5"/>
</g>
<defs>
<clipPath id="clip0_759_23476">
<rect width="26.6667" height="25" fill="white"/>
</clipPath>
</defs>
</svg>
