<svg width="32" height="30" viewBox="0 0 32 30" fill="none" xmlns="http://www.w3.org/2000/svg">
<g clip-path="url(#clip0_759_23435)">
<path d="M10.0634 29.8586C22.1389 29.8586 28.7436 18.3702 28.7436 8.40757C28.7436 8.08116 28.7436 7.75633 28.7245 7.43149C30.0093 6.36472 31.1184 5.04383 32 3.53063C30.8018 4.14035 29.5307 4.5402 28.2291 4.71685C29.5996 3.77468 30.6254 2.2928 31.1155 0.546995C29.8267 1.42513 28.4168 2.04399 26.9465 2.37685C25.9566 1.1682 24.6474 0.367869 23.2215 0.0997084C21.7957 -0.168452 20.3325 0.110507 19.0586 0.893418C17.7847 1.67633 16.771 2.91954 16.1744 4.43068C15.5777 5.94182 15.4314 7.63664 15.7581 9.25288C13.1479 9.1026 10.5943 8.32365 8.26325 6.96659C5.93217 5.60954 3.87567 3.70472 2.22725 1.3758C1.38769 3.03548 1.13053 5.00022 1.50814 6.86998C1.88575 8.73973 2.86973 10.3739 4.25975 11.4399C3.21497 11.4043 2.19297 11.0806 1.28 10.4962V10.5917C1.2804 12.3323 1.80512 14.0192 2.76516 15.3663C3.7252 16.7133 5.06144 17.6375 6.54725 17.9822C5.58068 18.2849 4.56654 18.3291 3.58275 18.1115C4.00227 19.6095 4.81904 20.9195 5.91883 21.8583C7.01861 22.797 8.3464 23.3176 9.7165 23.3471C7.39167 25.4453 4.51976 26.5843 1.56288 26.5808C1.04051 26.5797 0.518659 26.5433 0 26.472C3.00242 28.6846 6.4959 29.8582 10.0634 29.8527" fill="#1DA1F2"/>
</g>
<defs>
<clipPath id="clip0_759_23435">
<rect width="32" height="30" fill="white"/>
</clipPath>
</defs>
</svg>
