<svg width="31" height="28" viewBox="0 0 31 28" fill="none" xmlns="http://www.w3.org/2000/svg">
<path d="M16.224 6.69241L16.2957 6.71379L16.3006 6.70816C16.5123 6.73282 16.7164 6.60233 16.7788 6.392C17.3007 4.63841 18.9453 3.41304 20.7772 3.41304C21.0235 3.41304 21.2232 3.21329 21.2232 2.967C21.2232 2.7207 21.0235 2.52096 20.7772 2.52096C18.4771 2.52096 16.5445 4.05236 15.9239 6.13774C15.8535 6.37392 15.9881 6.62204 16.224 6.69241Z" fill="#2F327D" stroke="#F9FFF9" stroke-width="0.2325"/>
<path d="M25.3938 19.1267H23.4151C23.233 19.1267 23.0853 18.979 23.0853 18.7969C23.0853 18.6148 23.233 18.4671 23.4151 18.4671H25.3938C28.1213 18.4671 30.3405 16.2479 30.3405 13.5203C30.3405 10.7928 28.1213 8.57356 25.3938 8.57356H25.3462C25.2505 8.57356 25.1596 8.5321 25.0969 8.45978C25.0343 8.38747 25.006 8.29159 25.0197 8.19689C25.0491 7.99149 25.064 7.78513 25.064 7.58421C25.064 5.22036 23.1406 3.29696 20.7767 3.29696C19.8571 3.29696 18.9801 3.58435 18.2404 4.12825C18.0779 4.24768 17.847 4.19468 17.753 4.01589C15.6582 0.0269061 10.1867 -0.508774 7.35001 2.96129C6.15502 4.42318 5.6855 6.32486 6.06173 8.1783C6.10319 8.38301 5.94654 8.57381 5.73854 8.57381H5.60639C2.87885 8.57381 0.659604 10.7931 0.659604 13.5206C0.659604 16.2481 2.87885 18.4674 5.60639 18.4674H7.58508C7.76717 18.4674 7.91487 18.6151 7.91487 18.7972C7.91487 18.9793 7.76718 19.127 7.58508 19.127H5.60639C2.51509 19.127 0 16.6119 0 13.5206C0 10.516 2.37585 8.05578 5.34751 7.92009C5.06837 5.99718 5.60215 4.05757 6.8393 2.54388C9.87639 -1.17162 15.6967 -0.755163 18.1571 3.3879C18.9421 2.8958 19.8402 2.63765 20.7766 2.63765C23.6406 2.63765 25.91 5.07526 25.7114 7.92317C28.6557 8.0883 31 10.5355 31 13.5203C31 16.6119 28.4849 19.1267 25.3936 19.1267L25.3938 19.1267Z" fill="#2F327D"/>
<path d="M7.09469 18.6107C7.09469 23.2211 10.8454 26.9717 15.4557 26.9717C20.0661 26.9717 23.8167 23.221 23.8167 18.6107C23.8167 14.0003 20.0661 10.2497 15.4557 10.2497C10.8453 10.2497 7.09469 14.0004 7.09469 18.6107ZM7.98691 18.6107C7.98691 14.4926 11.3375 11.1419 15.4557 11.1419C19.5738 11.1419 22.9245 14.4925 22.9245 18.6107C22.9245 22.7288 19.5738 26.0795 15.4557 26.0795C11.3376 26.0795 7.98691 22.7289 7.98691 18.6107Z" fill="#2F327D" stroke="#F9FFF9" stroke-width="0.2325"/>
<path d="M15.249 21.9296C15.249 22.1271 15.4092 22.2873 15.6067 22.2873C15.8041 22.2873 15.9644 22.1273 15.9644 21.9296V15.6521C15.9644 15.4546 15.8042 15.2944 15.6067 15.2944C15.4092 15.2944 15.249 15.4546 15.249 15.6521V21.9296Z" fill="#2F327D" stroke="#2F327D" stroke-width="0.2325"/>
<path d="M15.6066 16.1585L13.9281 17.837L13.928 17.8371L15.6066 16.1585ZM15.6066 16.1585L17.2852 17.8371C17.3549 17.9068 17.4468 17.9418 17.5381 17.9418L15.6066 16.1585ZM15.8595 15.3997C15.7199 15.26 15.4933 15.2599 15.3537 15.3997L17.791 17.8371C17.7911 17.837 17.7911 17.837 17.7912 17.8369C17.9308 17.6972 17.9307 17.4709 17.791 17.3312L15.8595 15.3997Z" fill="#2F327D" stroke="#2F327D" stroke-width="0.2325"/>
</svg>
