<svg width="32" height="31" viewBox="0 0 32 31" fill="none" xmlns="http://www.w3.org/2000/svg">
<path d="M26.0126 7.57252H17.1779L14.6537 5.04834H5.8191C4.4308 5.04834 3.29492 6.18422 3.29492 7.57252V22.7176C3.29492 24.1059 4.4308 25.2418 5.8191 25.2418H26.0126C27.4009 25.2418 28.5367 24.1059 28.5367 22.7176V10.0967C28.5367 8.7084 27.4009 7.57252 26.0126 7.57252ZM26.0126 22.7176H5.8191V7.57252H13.6441L16.1683 10.0967H26.0126V22.7176ZM23.4884 20.1934L18.6924 13.883H18.44L14.78 18.6789L12.1296 15.2713L8.34329 20.1934H23.4884ZM13.3917 11.9898C13.3917 10.9802 12.5082 10.0967 11.4985 10.0967C10.4888 10.0967 9.60538 10.9802 9.60538 11.9898C9.60538 12.9995 10.4888 13.883 11.4985 13.883C12.5082 13.883 13.3917 12.9995 13.3917 11.9898Z" fill="black"/>
</svg>
