<svg width="31" height="31" viewBox="0 0 31 31" fill="none" xmlns="http://www.w3.org/2000/svg">
<path d="M14.0737 21.4556H9.0253C7.35166 21.4556 5.74657 20.7908 4.56313 19.6073C3.37969 18.4239 2.71484 16.8188 2.71484 15.1452C2.71484 13.4715 3.37969 11.8664 4.56313 10.683C5.74657 9.49957 7.35166 8.83472 9.0253 8.83472H14.0737V11.3589H9.0253C8.02112 11.3589 7.05806 11.7578 6.348 12.4679C5.63794 13.1779 5.23903 14.141 5.23903 15.1452C5.23903 16.1494 5.63794 17.1124 6.348 17.8225C7.05806 18.5325 8.02112 18.9314 9.0253 18.9314H14.0737V21.4556ZM21.6462 8.83472H16.5978V11.3589H21.6462C22.6504 11.3589 23.6135 11.7578 24.3235 12.4679C25.0336 13.1779 25.4325 14.141 25.4325 15.1452C25.4325 16.1494 25.0336 17.1124 24.3235 17.8225C23.6135 18.5325 22.6504 18.9314 21.6462 18.9314H16.5978V21.4556H21.6462C23.3199 21.4556 24.9249 20.7908 26.1084 19.6073C27.2918 18.4239 27.9567 16.8188 27.9567 15.1452C27.9567 13.4715 27.2918 11.8664 26.1084 10.683C24.9249 9.49957 23.3199 8.83472 21.6462 8.83472V8.83472ZM20.3841 13.8831H10.2874V16.4073H20.3841V13.8831Z" fill="black"/>
</svg>
