<svg width="31" height="31" viewBox="0 0 31 31" fill="none" xmlns="http://www.w3.org/2000/svg">
<path d="M5.20857 13.2519C4.19889 13.2519 3.31543 14.1353 3.31543 15.145C3.31543 16.1547 4.19889 17.0381 5.20857 17.0381C6.21824 17.0381 7.1017 16.1547 7.1017 15.145C7.1017 14.1353 6.21824 13.2519 5.20857 13.2519ZM5.20857 6.94141C4.19889 6.94141 3.31543 7.82487 3.31543 8.83454C3.31543 9.84422 4.19889 10.7277 5.20857 10.7277C6.21824 10.7277 7.1017 9.84422 7.1017 8.83454C7.1017 7.82487 6.21824 6.94141 5.20857 6.94141ZM5.20857 19.5623C4.19889 19.5623 3.31543 20.4458 3.31543 21.4555C3.31543 22.4651 4.19889 23.3486 5.20857 23.3486C6.21824 23.3486 7.1017 22.4651 7.1017 21.4555C7.1017 20.4458 6.21824 19.5623 5.20857 19.5623ZM9.62589 7.57245V10.0966H27.2952V7.57245H9.62589ZM9.62589 22.7175H27.2952V20.1934H9.62589V22.7175ZM9.62589 16.4071H27.2952V13.8829H9.62589V16.4071Z" fill="black"/>
</svg>
